<mxfile host="app.diagrams.net" modified="2024-07-18T11:26:16.997Z" agent="Mozilla/5.0 (Macintosh; Intel Mac OS X 10_15_7) AppleWebKit/537.36 (KHTML, like Gecko) Chrome/126.0.0.0 Safari/537.36" version="24.7.1" etag="EtDFK3NX4TrpW3WaqTXk" type="github">
  <diagram name="Page-1" id="S9yux7IZ8MooWOyKHcva">
    <mxGraphModel>
      <root>
        <mxCell id="0" />
        <mxCell id="1" parent="0" />
      </root>
    </mxGraphModel>
  </diagram>
</mxfile>
